<?xml version="1.0" encoding="utf-8"?>
<!-- Generator: Adobe Illustrator 21.1.0, SVG Export Plug-In . SVG Version: 6.00 Build 0)  -->
<svg version="1.1" id="Layer_1" xmlns="http://www.w3.org/2000/svg" xmlns:xlink="http://www.w3.org/1999/xlink" x="0px" y="0px"
	 viewBox="0 0 961.5 961.5" style="enable-background:new 0 0 961.5 961.5;" xml:space="preserve">
<style type="text/css">
	.st0{fill:#FFCC33;stroke:#000000;stroke-width:12;stroke-miterlimit:10;}
</style>
<title>boodschappendoen</title>
<path class="st0" d="M18,6h925.5c6.6,0,12,5.4,12,12v925.5c0,6.6-5.4,12-12,12H18c-6.6,0-12-5.4-12-12V18C6,11.4,11.4,6,18,6z"/>
<path d="M754.2,660.4c10.1,0,19-6.4,22.2-16l93.7-281.1c4.1-12.3-2.6-25.5-14.8-29.6c-2.4-0.8-4.9-1.2-7.4-1.2H258.7l-16.2-97.4
	c-5.6-33.9-34.9-58.8-69.3-58.7h-78c-12.9,0-23.4,10.5-23.4,23.4s10.5,23.4,23.4,23.4h78c11.4,0,21.2,8.2,23.1,19.5l66,396.2v44.9
	c0,26.5,14.9,50.7,38.5,62.7c-17.2,34.8-2.9,76.9,31.9,94.1s76.9,2.9,94.1-31.9c8.4-17,9.5-36.7,3.2-54.5h179.9
	c-12.9,36.6,6.2,76.7,42.8,89.7c36.6,12.9,76.7-6.2,89.7-42.8c5.4-15.2,5.4-31.7,0-46.9h11.8c12.9,0,23.4-10.5,23.4-23.4
	s-10.5-23.4-23.4-23.4H332.5c-12.9,0-23.4-10.5-23.4-23.4v-23.4H754.2z M613.6,519.9h-70.3V473h70.3V519.9z M660.5,473h123.7
	l-15.6,46.8h-108L660.5,473z M543.4,566.7h70.3v46.8h-70.3V566.7z M496.5,613.6h-70.3v-46.8h70.3L496.5,613.6z M543.4,426.2v-46.8
	h70.3v46.9L543.4,426.2z M496.5,426.2h-70.3v-46.8h70.3L496.5,426.2z M496.5,473v46.8h-70.3V473L496.5,473z M379.4,519.9h-89.5
	l-7.8-46.8h97.3V519.9z M305.5,613.6l-7.8-46.9h81.7v46.8L305.5,613.6z M660.5,613.6v-46.9H753l-15.6,46.8L660.5,613.6z
	 M799.7,426.2H660.5v-46.9h154.9L799.7,426.2z M379.4,379.3v46.9H274.3l-7.8-46.9H379.4z M387.2,777.6c0,12.9-10.5,23.4-23.4,23.4
	s-23.4-10.5-23.4-23.4c0-12.9,10.5-23.4,23.4-23.4C376.7,754.1,387.2,764.6,387.2,777.6L387.2,777.6z M699.5,777.6
	c0,12.9-10.5,23.4-23.4,23.4c-12.9,0-23.4-10.5-23.4-23.4c0-12.9,10.5-23.4,23.4-23.4c0,0,0,0,0,0
	C689,754.2,699.5,764.6,699.5,777.6L699.5,777.6z"/>
</svg>
