<?xml version="1.0" encoding="utf-8"?>
<!-- Generator: Adobe Illustrator 21.1.0, SVG Export Plug-In . SVG Version: 6.00 Build 0)  -->
<svg version="1.1" id="Layer_1" xmlns="http://www.w3.org/2000/svg" xmlns:xlink="http://www.w3.org/1999/xlink" x="0px" y="0px"
	 viewBox="0 0 961.5 961.5" style="enable-background:new 0 0 961.5 961.5;" xml:space="preserve">
<style type="text/css">
	.st0{fill:#FFCC33;stroke:#000000;stroke-width:12;stroke-miterlimit:10;}
	.st1{fill:none;stroke:#000000;stroke-width:33.23;stroke-linecap:round;stroke-linejoin:round;}
	.st2{fill:none;stroke:#000000;stroke-width:33.22;stroke-linecap:round;stroke-linejoin:round;}
</style>
<title>fietsen</title>
<path class="st0" d="M18,6h925.5c6.6,0,12,5.4,12,12v925.5c0,6.6-5.4,12-12,12H18c-6.6,0-12-5.4-12-12V18C6,11.4,11.4,6,18,6z"/>
<polygon class="st1" points="667.7,364.6 468.3,597.2 235.8,597.2 352,364.6 "/>
<path class="st1" d="M551.4,248.3c16.6,16.6,16.9,16.6,99.7,16.6c0.4,5.8,19.3,147.9,83.1,332.2"/>
<line class="st1" x1="313.4" y1="287.6" x2="468.3" y2="597.2"/>
<path d="M401.9,274.5c0,11.9-18.5,22.8-61,22.8c-44.1,0-88.5,44.6-88.5-8.6c0-15.4,3.5-23.7,22.4-23.7h107
	C393.7,264.9,401.9,265.3,401.9,274.5z"/>
<circle class="st1" cx="235.8" cy="597.2" r="149.5"/>
<circle class="st2" cx="734.1" cy="597.2" r="149.5"/>
</svg>
