<?xml version="1.0" encoding="utf-8"?>
<!-- Generator: Adobe Illustrator 21.1.0, SVG Export Plug-In . SVG Version: 6.00 Build 0)  -->
<svg version="1.1" id="Layer_1" xmlns="http://www.w3.org/2000/svg" xmlns:xlink="http://www.w3.org/1999/xlink" x="0px" y="0px"
	 viewBox="0 0 961.5 961.5" style="enable-background:new 0 0 961.5 961.5;" xml:space="preserve">
<style type="text/css">
	.st0{fill:#FFCC33;stroke:#000000;stroke-width:12;stroke-miterlimit:10;}
</style>
<title>hardlopen</title>
<path class="st0" d="M18,6h925.5c6.6,0,12,5.4,12,12v925.5c0,6.6-5.4,12-12,12H18c-6.6,0-12-5.4-12-12V18C6,11.4,11.4,6,18,6z"/>
<circle cx="632.5" cy="143.5" r="75.2"/>
<path d="M814.9,246.9c-18.8-9.4-41.4-2.8-50.8,16l-32.9,62l-144.8-91.2c-5.9-3.8-12.7-5.8-19.7-5.6H406.9
	c-13.8-0.1-26.5,7.5-32.9,19.7l-61.1,112.8c-10.3,17.9-2.8,41.4,15,50.8c5.6,2.8,12.2,4.7,17.9,4.7c13.7-0.1,26.3-7.7,32.9-19.8
	l50.8-93.1H485L318.6,613.5h-156c-20.8,0-37.6,16.8-37.6,37.6c0,20.8,16.8,37.6,37.6,37.6h178.6c13.8,0.1,26.5-7.5,32.9-19.7
	l65.8-121.3l108.1,100.6l-8.5,188.9c-1.7,20,13.1,37.7,33.1,39.4c0.5,0,1.1,0.1,1.6,0.1h1.9c19.7,0,36.7-16,37.6-35.7l9.4-206.8
	c0.9-11.3-3.8-21.6-12.2-29.1l-91.2-84.6l95.9-178.6l109,68.6c8.9,5.8,19.8,7.5,30.1,4.7c10.2-2.6,18.7-9.4,23.5-18.8l51.7-98.7
	C840.3,279.8,833.7,257.3,814.9,246.9z"/>
</svg>
