<?xml version="1.0" encoding="utf-8"?>
<!-- Generator: Adobe Illustrator 21.1.0, SVG Export Plug-In . SVG Version: 6.00 Build 0)  -->
<svg version="1.1" id="Layer_1" xmlns="http://www.w3.org/2000/svg" xmlns:xlink="http://www.w3.org/1999/xlink" x="0px" y="0px"
	 viewBox="0 0 961.5 961.5" style="enable-background:new 0 0 961.5 961.5;" xml:space="preserve">
<style type="text/css">
	.st0{fill:#FFCC33;stroke:#000000;stroke-width:12;stroke-miterlimit:10;}
	.st1{fill:#010002;}
</style>
<title>honduitlaten</title>
<path class="st0" d="M18,6h925.5c6.6,0,12,5.4,12,12v925.5c0,6.6-5.4,12-12,12H18c-6.6,0-12-5.4-12-12V18C6,11.4,11.4,6,18,6z"/>
<path class="st1" d="M724.6,688.3l14.5-14.5c-56.2-48.8-128.4-130-190.4-190.1c7.8-15.5,2.8-34.3-11.5-43.9
	c-66.8-44.4-92.1-76.3-121.4-113.2C402.6,310,389,292.9,371,273.4c-1.6-1.8-3.4-3.3-5.4-4.7c-6.7-6.3-14.3-11.7-22.6-15.8
	c-5.8-3-11.9-5.2-18.3-6.5c-6.6-1.1-13.3-1.7-20-1.8h-0.3c-1,0-2.1,0.2-3.2,0.3c-0.8,0-1.5-0.1-2.3,0c-1.3,0.1-2.6,0.4-3.8,0.6
	s-2.7,0.4-4,0.6c-67,10.5-137.5,62.8-215.3,159.7c-11.9,14.8-9.5,36.4,5.3,48.3c14.8,11.9,36.4,9.5,48.3-5.3
	c33.4-41.6,62.7-70.8,88-91.3l-28.3,131.6c-4,18.9,1.2,36.4,11.8,50.6l-8.9,135.5l-56.5,146c-8.7,22.5,2.5,47.9,25,56.6
	c22.5,8.7,47.9-2.5,56.6-25L276,700.5c1.6-4.1,2.6-8.5,2.9-12.9l5.2-78.9l52,82.1l43,157.5c5.1,19.1,22.4,32.4,42.2,32.5
	c3.8,0,7.6-0.5,11.3-1.5c23.3-6.2,37.2-30.1,31-53.5c0,0,0,0,0,0l-44.8-164c-1.1-4.3-2.9-8.4-5.3-12.1l-70.8-111.9
	c2.4-4.6,4.2-9.6,5.3-14.7l29-135.2c27.1,33.2,58.3,66.6,122.3,109c11.4,7.7,26.4,7.7,37.7-0.1C594.2,552.5,666.3,637.5,724.6,688.3
	z"/>
<circle class="st1" cx="364.3" cy="161" r="88.5"/>
<path class="st1" d="M634.2,698.4l-30.6-24.5c-7.2-5.2-17.2-3.7-22.4,3.5c-4.9,6.7-3.9,16,2.3,21.5l31.2,25.1V792
	c0,0.4,0,0.7,0.1,1.1l-27.5,52.8c-4.3,7.7-1.6,17.5,6.2,21.9c7.7,4.3,17.5,1.6,21.9-6.2c0.2-0.3,0.3-0.6,0.5-0.9l27.6-53.1
	l30.9,53.7c4.7,7.5,14.6,9.9,22.1,5.2c7.2-4.5,9.7-13.7,5.7-21.2l-27-46.8h99.9v54.9c0.2,8.9,7.6,15.9,16.5,15.7
	c8.6-0.2,15.4-7.1,15.7-15.7v-60.1c0.1-0.4,0.1-0.8,0.1-1.2v-50.8l-74.8-42.9H634.2z"/>
<path class="st1" d="M848.9,665.7c-9.9-9.3-13.3-20.3-24.4-28.2c-1.9-1.4-3.9-2.8-6-4c-1.1-0.5-1.7-1.7-1.5-2.9
	c0.5-4.6,0.9-9.2,1.3-13.8c0.7-8.3-1.7-15.8-8.3-20.6c-2.7-2-15.8-8.3-21.5,13.5c-1.2,4.8-3,9.4-5.2,13.8
	c-8.3,15.9-18.7,30.4-28.8,45.1l-13.7,20.2l70.2,40c0,0,13.5-14.8,15.4-14c2.6,1.2,5.3,2.3,7.9,3.5c7.6,3.4,15.9,5,24.3,4.6
	c14.4-0.8,29.3-8.5,30.7-25.7C890.5,681.3,852.3,668.9,848.9,665.7z"/>
</svg>
