<?xml version="1.0" encoding="utf-8"?>
<!-- Generator: Adobe Illustrator 21.1.0, SVG Export Plug-In . SVG Version: 6.00 Build 0)  -->
<svg version="1.1" id="Layer_1" xmlns="http://www.w3.org/2000/svg" xmlns:xlink="http://www.w3.org/1999/xlink" x="0px" y="0px"
	 viewBox="0 0 961.5 961.5" style="enable-background:new 0 0 961.5 961.5;" xml:space="preserve">
<style type="text/css">
	.st0{fill:#FFCC33;stroke:#000000;stroke-width:12;stroke-miterlimit:10;}
</style>
<title>wandelen</title>
<path class="st0" d="M18,6h925.5c6.6,0,12,5.4,12,12v925.5c0,6.6-5.4,12-12,12H18c-6.6,0-12-5.4-12-12V18C6,11.4,11.4,6,18,6z"/>
<path d="M445.5,69.3c-19,4.5-39.2,21.1-47.8,39.6c-4.2,8.7-4.7,12-4.7,28.3c0,16.9,0.4,19.2,5.4,29.6c7,14.7,18.8,26.5,33.5,33.5
	c10.8,5.4,12.9,5.8,29.1,5.8c16,0,18.5-0.5,28.8-5.4c21.8-10.5,34.5-26.5,39.2-49.2C539.3,102.3,494.2,58,445.5,69.3z"/>
<path d="M430.9,220c-25.3,4.5-26.2,5.2-87,72.2c-30.2,33.1-56.1,62.6-57.8,65.5c-1.4,2.8-3,11.3-3.5,18.8l-0.9,13.5l31.9,65
	c17.4,35.6,33.5,67.3,35.4,70.4c12.6,18.7,42.5,17.1,53-2.8c7.7-14.6,7-17.4-22.1-76.6c-14.5-29.3-26-53.9-25.8-54.6
	c0.4-0.7,12.7-14.6,27.5-31l27-30l0.6,123.1l0.4,123.1l-18.7,64.7l-18.7,64.9l-40.8,66.3c-22.5,36.6-42.4,69.6-44.5,73.4
	c-4.9,9.4-4.9,25.3,0,34.9c9.1,17.3,28.4,25.5,48.1,19.9c12.2-3.3,19.9-13.8,65.7-88.8l44.5-72.4l16.9-58.4c9.4-32.1,18-61.4,19-65
	l1.7-6.6l44.5,57.2l44.3,57.2l13.8,42.7c7.7,23.5,19,58.9,25.5,78.8s13.3,38.7,15.5,41.8c15.9,23.7,53.9,21.1,67.1-4.7
	c7.8-15.2,7.2-18.7-22-109C657.4,729,644.3,690,642.6,687c-1.6-3.1-21.3-29-43.8-57.4l-41-51.8v-68.7c0-57.2,0.3-68.5,2.4-68.5
	c1.2,0,31.6,11,67.1,24.4s67.3,24.4,70.5,24.4c23.2-0.2,38.7-27.4,26.9-47.6c-2.4-4.2-7-8.9-10.3-10.6c-3.1-1.7-33.1-13.4-66.6-26
	c-33.5-12.7-61.5-24.2-62.3-25.6c-0.9-1.4-8.5-18.7-17.1-38.4c-36.8-84.8-45.7-103.8-50-108.3C505.7,219.6,465.6,213.7,430.9,220z"
	/>
</svg>
